<svg width="904" height="898" version="1.1" xmlns="http://www.w3.org/2000/svg" desc="Created with imagetracer.js version 1.2.6" ><path fill="rgb(98,102,241)" stroke="rgb(98,102,241)" stroke-width="1" opacity="1" d="M 0 0 L 904 0 L 904 898 L 0 898 L 0 0 Z M 337 358 L 305 366 L 303 364 Q 302 360 297 361 L 292 368 Q 291 374 295 376 L 295 384 L 294 385 L 294 402 L 295 407 L 298 409 Q 305 398 319 392 L 323 393 L 324 396 L 323 406 Q 318 417 309 426 L 307 433 L 310 434 Q 319 426 326 415 L 330 403 Q 331 393 328 389 L 325 386 L 317 386 L 311 389 L 301 398 L 301 381 L 304 374 L 310 370 L 319 367 L 333 364 L 339 365 Q 342 364 341 359 L 337 358 Z M 139 388 L 134 390 L 126 400 L 126 506 L 128 510 Q 131 515 139 517 L 238 517 L 238 439 L 240 437 L 253 437 L 254 436 L 239 421 L 253 406 L 253 404 L 240 404 L 238 403 L 238 389 L 238 388 L 139 388 Z M 295 457 L 293 459 L 295 476 L 296 477 L 296 493 L 297 494 L 297 533 Q 300 534 298 540 L 301 542 Q 305 543 306 540 L 305 516 L 304 515 L 302 487 L 301 486 L 302 469 L 306 475 L 327 517 Q 326 520 331 518 L 333 516 L 339 502 L 348 472 L 349 477 L 349 488 L 350 489 L 350 499 L 351 500 L 351 511 L 352 512 L 352 522 L 353 523 L 354 541 L 362 539 L 357 513 L 356 495 L 355 494 L 355 482 L 354 481 L 354 469 L 352 459 Q 353 456 349 457 L 346 460 L 331 506 Q 332 508 329 507 L 306 463 L 299 457 L 295 457 Z M 483 457 L 482 460 L 482 486 L 472 491 Q 471 497 475 499 L 481 496 L 481 505 L 482 506 L 483 540 L 484 543 L 489 544 L 490 542 L 488 492 Q 498 490 506 485 L 505 479 L 488 483 L 489 458 L 483 457 Z M 672 457 L 672 466 L 671 467 L 671 486 L 661 491 Q 660 497 664 499 L 670 496 L 671 502 L 671 518 L 672 519 L 672 536 L 673 537 L 673 543 L 676 544 L 679 543 L 679 524 L 678 523 L 678 500 Q 676 498 677 494 L 695 485 Q 696 480 694 479 L 678 483 L 677 480 Q 679 472 678 462 L 679 460 Q 677 456 672 457 Z M 367 460 L 367 465 Q 368 467 372 467 Q 374 466 373 462 Q 372 459 367 460 Z M 726 460 L 726 466 Q 727 468 731 467 Q 733 466 732 462 Q 731 459 726 460 Z M 641 461 Q 628 465 620 472 L 609 485 L 606 494 Q 605 500 608 504 Q 613 509 621 511 L 654 516 L 655 520 L 643 527 L 620 534 Q 617 535 618 539 L 633 537 L 649 531 L 658 526 Q 664 525 662 516 L 655 510 L 622 506 L 613 500 L 613 492 L 619 482 Q 626 471 639 467 L 643 470 L 648 470 Q 652 469 651 463 L 650 461 L 641 461 Z M 756 476 L 753 477 L 745 487 L 741 507 Q 739 525 745 536 L 752 541 L 762 541 L 772 535 L 778 522 Q 780 515 776 513 Q 769 520 767 531 L 762 535 L 753 534 Q 748 531 747 526 L 747 510 L 749 499 L 754 486 L 758 482 L 759 484 Q 758 490 761 494 Q 762 497 766 496 Q 768 485 764 479 Q 762 475 756 476 Z M 414 477 L 410 479 Q 402 484 399 493 L 394 516 L 392 513 L 390 488 L 388 481 L 388 478 L 383 478 L 384 509 L 385 510 L 385 523 L 386 524 L 386 537 L 387 538 Q 385 544 393 541 L 395 539 Q 398 511 409 491 L 414 486 L 417 486 L 420 490 L 421 494 L 423 538 L 425 539 L 429 538 L 428 498 L 423 482 L 419 477 L 414 477 Z M 371 478 L 369 480 Q 370 484 368 486 L 369 541 L 371 542 Q 375 542 375 542 L 375 479 L 371 478 Z M 728 478 L 727 484 L 728 541 Q 729 543 733 542 L 734 541 L 734 479 L 728 478 Z M 707 480 L 702 482 L 698 496 L 697 507 L 696 508 L 697 536 L 701 541 Q 708 542 711 539 L 718 531 L 722 517 Q 724 497 717 487 Q 715 480 707 480 Z M 527 483 L 524 484 L 515 495 L 510 508 L 504 515 L 504 518 L 511 519 Q 509 530 513 537 Q 516 541 523 542 Q 534 539 542 532 Q 550 526 554 515 Q 553 511 549 512 L 537 528 L 527 535 Q 519 537 517 533 L 517 516 L 518 514 L 541 500 L 545 496 L 543 489 Q 539 481 527 483 Z M 439 487 L 436 488 L 437 525 L 440 537 L 445 542 L 453 541 L 463 530 L 464 532 Q 463 539 466 542 L 467 543 L 472 543 L 472 539 L 469 530 L 469 519 L 468 518 L 469 490 Q 467 487 462 488 L 461 516 L 453 531 L 448 535 L 445 533 L 444 528 L 442 488 L 439 487 Z " /><path fill="rgb(98,102,241)" stroke="rgb(98,102,241)" stroke-width="1" opacity="1" d="M 158 404 L 222 404 L 222 501 L 158 501 L 158 404 Z M 174 420 L 174 436 L 206 436 L 206 420 L 174 420 Z " /><path fill="rgb(98,102,241)" stroke="rgb(98,102,241)" stroke-width="1" opacity="1" d="M 530.5 489 Q 535.3 489.3 537 492.5 L 532.5 498 L 520 504 Q 521.4 494.6 528.5 490 L 530.5 489 Z " /><path fill="rgb(98,102,241)" stroke="rgb(98,102,241)" stroke-width="1" opacity="1" d="M 708.5 489 Q 714.3 488.3 715 492.5 L 716 510.5 L 712 527.5 L 707.5 533 L 704 534 L 703 531.5 L 703 499.5 L 706 490 L 708.5 489 Z " /><path fill="rgb(248,248,254)" stroke="rgb(248,248,254)" stroke-width="1" opacity="1" d="M 336.5 358 L 341 359 Q 342 363.7 338.5 365 L 332.5 364 L 318.5 367 L 309.5 370 L 304 373.5 L 301 380.5 L 301 397.5 L 310.5 389 L 316.5 386 L 324.5 386 L 328 388.5 Q 331.3 393.2 330 402.5 L 326 414.5 Q 319.3 425.8 309.5 434 L 307 432.5 L 309 425.5 Q 317.6 417.1 323 405.5 L 324 395.5 L 323 393 L 318.5 392 Q 305.3 397.8 297.5 409 L 295 406.5 L 294 401.5 L 294 384.5 L 295 383.5 L 295 375.5 Q 290.7 374.3 292 367.5 L 296.5 361 Q 301.6 360.4 303 363.5 L 304.5 366 L 336.5 358 Z " /><path fill="rgb(248,248,254)" stroke="rgb(248,248,254)" stroke-width="1" opacity="1" d="M 138.5 388 L 237.5 388 L 238 388.5 L 238 402.5 L 239.5 404 L 253 404 L 253 405.5 L 239 420.5 L 254 435.5 L 252.5 437 L 239.5 437 L 238 438.5 L 238 517 L 138.5 517 Q 131.3 515.2 128 509.5 L 126 505.5 L 126 399.5 L 133.5 390 L 138.5 388 Z M 158 404 L 158 501 L 222 501 L 222 404 L 158 404 Z " /><path fill="rgb(248,248,254)" stroke="rgb(248,248,254)" stroke-width="1" opacity="1" d="M 174 420 L 206 420 L 206 436 L 174 436 L 174 420 Z " /><path fill="rgb(248,248,254)" stroke="rgb(248,248,254)" stroke-width="1" opacity="1" d="M 294.5 457 L 298.5 457 L 306 462.5 L 329 507 Q 331.7 508.1 331 505.5 L 346 459.5 L 348.5 457 Q 352.9 455.5 352 458.5 L 354 468.5 L 354 480.5 L 355 481.5 L 355 493.5 L 356 494.5 L 357 512.5 L 362 539 L 354 541 L 353 522.5 L 352 521.5 L 352 511.5 L 351 510.5 L 351 499.5 L 350 498.5 L 350 488.5 L 349 487.5 L 349 476.5 L 347.5 472 L 339 501.5 L 333 515.5 L 330.5 518 Q 326.1 519.5 327 516.5 L 306 474.5 L 301.5 469 L 301 485.5 L 302 486.5 L 304 514.5 L 305 515.5 L 306 539.5 Q 305.3 542.8 300.5 542 L 298 539.5 Q 299.5 534 297 532.5 L 297 493.5 L 296 492.5 L 296 476.5 L 295 475.5 L 293 458.5 L 294.5 457 Z " /><path fill="rgb(248,248,254)" stroke="rgb(248,248,254)" stroke-width="1" opacity="1" d="M 483 457 L 489 458 L 488 483 L 505 479 L 506 484.5 Q 498.2 490.1 488 492 L 490 541.5 L 489 544 L 484 543 L 483 539.5 L 482 505.5 L 481 504.5 L 480.5 496 L 474.5 499 Q 470.5 497.3 472 491 L 482 486 L 482 459.5 L 483 457 Z " /><path fill="rgb(248,248,254)" stroke="rgb(248,248,254)" stroke-width="1" opacity="1" d="M 672 457 Q 677 456.2 679 459.5 L 678 461.5 Q 679.4 472.4 677 479.5 L 678 483 L 693.5 479 Q 696 480 695 484.5 L 677 493.5 Q 675.8 498.2 678 499.5 L 678 522.5 L 679 523.5 L 679 542.5 L 675.5 544 L 673 543 L 673 536.5 L 672 535.5 L 672 518.5 L 671 517.5 L 671 501.5 L 669.5 496 L 663.5 499 Q 659.5 497.3 661 491 L 671 485.5 L 671 466.5 L 672 465.5 L 672 457 Z " /><path fill="rgb(248,248,254)" stroke="rgb(248,248,254)" stroke-width="1" opacity="1" d="M 367 460 Q 371.6 458.8 373 461.5 Q 374 466 371.5 467 Q 367.5 467.5 367 464.5 L 367 460 Z " /><path fill="rgb(248,248,254)" stroke="rgb(248,248,254)" stroke-width="1" opacity="1" d="M 726 460 Q 730.6 458.8 732 461.5 Q 733 466 730.5 467 Q 726.8 467.8 726 465.5 L 726 460 Z " /><path fill="rgb(248,248,254)" stroke="rgb(248,248,254)" stroke-width="1" opacity="1" d="M 640.5 461 L 649.5 461 L 651 462.5 Q 652 469 647.5 470 L 642.5 470 L 638.5 467 Q 625.9 471.4 619 481.5 L 613 491.5 L 613 499.5 L 621.5 506 L 654.5 510 L 662 515.5 Q 663.5 524.5 657.5 526 L 648.5 531 L 632.5 537 L 618 539 Q 617 535.2 619.5 534 L 642.5 527 L 655 519.5 L 653.5 516 L 620.5 511 Q 612.8 508.8 608 503.5 Q 605.3 500.2 606 493.5 L 609 484.5 L 619.5 472 Q 628.1 464.6 640.5 461 Z " /><path fill="rgb(248,248,254)" stroke="rgb(248,248,254)" stroke-width="1" opacity="1" d="M 755.5 476 Q 762 475 764 478.5 Q 767.5 485.2 766 496 Q 762.2 496.8 761 493.5 Q 758.3 490.2 759 483.5 L 757.5 482 L 754 485.5 L 749 498.5 L 747 509.5 L 747 525.5 Q 748.3 531.3 752.5 534 L 761.5 535 L 767 530.5 Q 769.4 519.9 775.5 513 Q 779.5 514.5 778 521.5 L 772 535 L 761.5 541 L 751.5 541 L 745 535.5 Q 738.6 525.4 741 506.5 L 745 486.5 L 752.5 477 L 755.5 476 Z " /><path fill="rgb(248,248,254)" stroke="rgb(248,248,254)" stroke-width="1" opacity="1" d="M 413.5 477 L 418.5 477 L 423 481.5 L 428 497.5 L 429 538 L 424.5 539 L 423 537.5 L 421 493.5 L 420 489.5 L 416.5 486 L 413.5 486 L 409 490.5 Q 398.4 510.9 395 538.5 L 392.5 541 Q 385.2 543.6 387 537.5 L 386 536.5 L 386 523.5 L 385 522.5 L 385 509.5 L 384 508.5 L 383 478 L 388 478 L 388 480.5 L 390 487.5 L 392 512.5 L 393.5 516 L 399 492.5 Q 402.3 483.8 409.5 479 L 413.5 477 Z " /><path fill="rgb(248,248,254)" stroke="rgb(248,248,254)" stroke-width="1" opacity="1" d="M 370.5 478 L 375 479 L 375 541.5 Q 375 542.5 370.5 542 L 369 540.5 L 368 485.5 Q 370.3 484.2 369 479.5 L 370.5 478 Z " /><path fill="rgb(248,248,254)" stroke="rgb(248,248,254)" stroke-width="1" opacity="1" d="M 728 478 L 734 479 L 734 540.5 L 732.5 542 Q 728.8 542.8 728 540.5 L 727 483.5 L 728 478 Z " /><path fill="rgb(248,248,254)" stroke="rgb(248,248,254)" stroke-width="1" opacity="1" d="M 706.5 480 Q 714.6 480.4 717 486.5 Q 724.4 496.6 722 516.5 L 718 530.5 L 710.5 539 Q 707.5 542 700.5 541 L 697 535.5 L 696 507.5 L 697 506.5 L 698 495.5 L 702 482 L 706.5 480 Z M 709 489 L 706 490 L 703 500 L 703 532 L 704 534 L 708 533 L 712 528 L 716 511 L 715 493 Q 714 488 709 489 Z " /><path fill="rgb(248,248,254)" stroke="rgb(248,248,254)" stroke-width="1" opacity="1" d="M 526.5 483 Q 539.4 481.1 543 488.5 L 545 495.5 L 540.5 500 L 518 513.5 L 517 515.5 L 517 532.5 Q 518.8 536.8 526.5 535 L 537 527.5 L 548.5 512 Q 553.3 511.3 554 514.5 Q 550.4 525.9 541.5 532 Q 534.3 539.3 522.5 542 Q 515.9 541.1 513 536.5 Q 509.1 530.2 511 519 L 504 518 L 504 514.5 L 510 507.5 L 515 494.5 L 523.5 484 L 526.5 483 Z M 531 489 L 529 490 Q 521 495 520 504 L 533 498 L 537 493 Q 535 489 531 489 Z " /><path fill="rgb(248,248,254)" stroke="rgb(248,248,254)" stroke-width="1" opacity="1" d="M 438.5 487 L 442 488 L 444 527.5 L 445 532.5 L 447.5 535 L 453 530.5 L 461 515.5 L 462 488 Q 467.4 486.5 469 489.5 L 468 517.5 L 469 518.5 L 469 529.5 L 472 538.5 L 472 543 L 466.5 543 L 466 541.5 Q 463 538.5 464 531.5 L 462.5 530 L 452.5 541 L 444.5 542 L 440 536.5 L 437 524.5 L 436 488 L 438.5 487 Z " /></svg>